<svg width="40" height="40" viewBox="0 0 40 40" fill="none" xmlns="http://www.w3.org/2000/svg">
<rect width="40" height="40" rx="10" fill="#008CFF"/>
<path d="M17.8955 29.979L15.5127 29.2876C15.2627 29.2173 15.1221 28.9556 15.1924 28.7056L20.5244 10.3384C20.5947 10.0884 20.8564 9.94777 21.1064 10.0181L23.4893 10.7095C23.7393 10.7798 23.8799 11.0415 23.8096 11.2915L18.4775 29.6587C18.4033 29.9087 18.1455 30.0532 17.8955 29.979ZM13.4424 25.5962L15.1416 23.7837C15.3213 23.5923 15.3096 23.2876 15.1104 23.1118L11.5713 19.9985L15.1104 16.8853C15.3096 16.7095 15.3252 16.4048 15.1416 16.2134L13.4424 14.4009C13.2666 14.2134 12.9697 14.2017 12.7783 14.3814L7.14941 19.6548C6.9502 19.8384 6.9502 20.1548 7.14941 20.3384L12.7783 25.6157C12.9697 25.7954 13.2666 25.7876 13.4424 25.5962ZM26.2236 25.6196L31.8525 20.3423C32.0518 20.1587 32.0518 19.8423 31.8525 19.6587L26.2236 14.3775C26.0361 14.2017 25.7393 14.2095 25.5596 14.397L23.8604 16.2095C23.6807 16.4009 23.6924 16.7056 23.8916 16.8814L27.4307 19.9985L23.8916 23.1118C23.6924 23.2876 23.6768 23.5923 23.8604 23.7837L25.5596 25.5962C25.7354 25.7876 26.0322 25.7954 26.2236 25.6196Z" fill="white"/>
</svg>
