<svg width="50" height="50" viewBox="0 0 50 50" fill="none" xmlns="http://www.w3.org/2000/svg">
<rect width="50" height="50" rx="10" fill="#0051FF"/>
<path d="M37.2188 25.1094C37.2188 18.4199 31.7988 13 25.1094 13C18.4199 13 13 18.4199 13 25.1094C13 31.1533 17.4282 36.1631 23.2173 37.0723V28.6099H20.1411V25.1094H23.2173V22.4414C23.2173 19.4067 25.0239 17.7305 27.791 17.7305C29.1162 17.7305 30.502 17.9668 30.502 17.9668V20.9453H28.9746C27.4707 20.9453 27.0015 21.8789 27.0015 22.8364V25.1094H30.3599L29.8228 28.6099H27.0015V37.0723C32.7905 36.1631 37.2188 31.1533 37.2188 25.1094Z" fill="white"/>
</svg>
