<svg width="50" height="50" viewBox="0 0 50 50" fill="none" xmlns="http://www.w3.org/2000/svg">
<rect width="50" height="50" rx="10" fill="black"/>
<path d="M21.1006 32.0137C21.1006 32.1113 20.9883 32.1895 20.8467 32.1895C20.6855 32.2041 20.5732 32.126 20.5732 32.0137C20.5732 31.916 20.6855 31.8379 20.8271 31.8379C20.9736 31.8232 21.1006 31.9014 21.1006 32.0137ZM19.582 31.7939C19.5479 31.8916 19.6455 32.0039 19.792 32.0332C19.9189 32.082 20.0654 32.0332 20.0947 31.9355C20.124 31.8379 20.0312 31.7256 19.8848 31.6816C19.7578 31.6475 19.6162 31.6963 19.582 31.7939ZM21.7402 31.7109C21.5986 31.7451 21.501 31.8379 21.5156 31.9502C21.5303 32.0479 21.6572 32.1113 21.8037 32.0771C21.9453 32.043 22.043 31.9502 22.0283 31.8525C22.0137 31.7598 21.8818 31.6963 21.7402 31.7109ZM24.9531 13C18.1807 13 13 18.1416 13 24.9141C13 30.3291 16.4082 34.9629 21.2764 36.5938C21.9014 36.7061 22.1211 36.3203 22.1211 36.0029C22.1211 35.7002 22.1064 34.0303 22.1064 33.0049C22.1064 33.0049 18.6885 33.7373 17.9707 31.5498C17.9707 31.5498 17.4141 30.1289 16.6133 29.7627C16.6133 29.7627 15.4951 28.9961 16.6914 29.0107C16.6914 29.0107 17.9072 29.1084 18.5762 30.2705C19.6455 32.1553 21.4375 31.6133 22.1357 31.291C22.248 30.5098 22.5654 29.9678 22.917 29.6455C20.1875 29.3428 17.4336 28.9473 17.4336 24.25C17.4336 22.9072 17.8047 22.2334 18.5859 21.374C18.459 21.0566 18.0439 19.748 18.7129 18.0586C19.7334 17.7412 22.082 19.377 22.082 19.377C23.0586 19.1035 24.1084 18.9619 25.1484 18.9619C26.1885 18.9619 27.2383 19.1035 28.2148 19.377C28.2148 19.377 30.5635 17.7363 31.584 18.0586C32.2529 19.7529 31.8379 21.0566 31.7109 21.374C32.4922 22.2383 32.9707 22.9121 32.9707 24.25C32.9707 28.9619 30.0947 29.3379 27.3652 29.6455C27.8145 30.0312 28.1953 30.7637 28.1953 31.9111C28.1953 33.5566 28.1807 35.5928 28.1807 35.9932C28.1807 36.3105 28.4053 36.6963 29.0254 36.584C33.9082 34.9629 37.2188 30.3291 37.2188 24.9141C37.2188 18.1416 31.7256 13 24.9531 13ZM17.7461 29.8408C17.6826 29.8896 17.6973 30.002 17.7803 30.0947C17.8584 30.1729 17.9707 30.207 18.0342 30.1436C18.0977 30.0947 18.083 29.9824 18 29.8896C17.9219 29.8115 17.8096 29.7773 17.7461 29.8408ZM17.2188 29.4453C17.1846 29.5088 17.2334 29.5869 17.3311 29.6357C17.4092 29.6846 17.5068 29.6699 17.541 29.6016C17.5752 29.5381 17.5264 29.46 17.4287 29.4111C17.3311 29.3818 17.2529 29.3965 17.2188 29.4453ZM18.8008 31.1836C18.7227 31.2471 18.752 31.3936 18.8643 31.4863C18.9766 31.5986 19.1182 31.6133 19.1816 31.5352C19.2451 31.4717 19.2158 31.3252 19.1182 31.2324C19.0107 31.1201 18.8643 31.1055 18.8008 31.1836ZM18.2441 30.4658C18.166 30.5146 18.166 30.6416 18.2441 30.7539C18.3223 30.8662 18.4541 30.915 18.5176 30.8662C18.5957 30.8027 18.5957 30.6758 18.5176 30.5635C18.4492 30.4512 18.3223 30.4023 18.2441 30.4658Z" fill="white"/>
</svg>
