<svg width="50" height="50" viewBox="0 0 50 50" fill="none" xmlns="http://www.w3.org/2000/svg">
<path d="M0 10C0 4.47715 4.47715 0 10 0H40C45.5228 0 50 4.47715 50 10V40C50 45.5228 45.5228 50 40 50H10C4.47715 50 0 45.5228 0 40V10Z" fill="#D32E7A"/>
<path d="M24.946 19.3308C21.8406 19.3308 19.3357 21.8357 19.3357 24.9412C19.3357 28.0466 21.8406 30.5515 24.946 30.5515C28.0515 30.5515 30.5564 28.0466 30.5564 24.9412C30.5564 21.8357 28.0515 19.3308 24.946 19.3308ZM24.946 28.5886C22.9392 28.5886 21.2986 26.9529 21.2986 24.9412C21.2986 22.9294 22.9343 21.2937 24.946 21.2937C26.9578 21.2937 28.5935 22.9294 28.5935 24.9412C28.5935 26.9529 26.9529 28.5886 24.946 28.5886ZM32.0945 19.1013C32.0945 19.8289 31.5085 20.4099 30.7859 20.4099C30.0584 20.4099 29.4773 19.824 29.4773 19.1013C29.4773 18.3787 30.0632 17.7927 30.7859 17.7927C31.5085 17.7927 32.0945 18.3787 32.0945 19.1013ZM35.8103 20.4294C35.7273 18.6765 35.3269 17.1238 34.0427 15.8445C32.7634 14.5652 31.2107 14.1648 29.4578 14.0769C27.6511 13.9744 22.2361 13.9744 20.4294 14.0769C18.6814 14.1599 17.1287 14.5603 15.8445 15.8396C14.5603 17.1189 14.1648 18.6716 14.0769 20.4246C13.9744 22.2312 13.9744 27.6462 14.0769 29.4529C14.1599 31.2058 14.5603 32.7585 15.8445 34.0378C17.1287 35.3171 18.6765 35.7175 20.4294 35.8054C22.2361 35.908 27.6511 35.908 29.4578 35.8054C31.2107 35.7224 32.7634 35.322 34.0427 34.0378C35.322 32.7585 35.7224 31.2058 35.8103 29.4529C35.9128 27.6462 35.9128 22.2361 35.8103 20.4294ZM33.4763 31.3914C33.0955 32.3484 32.3582 33.0857 31.3962 33.4714C29.9558 34.0427 26.5378 33.9109 24.946 33.9109C23.3542 33.9109 19.9314 34.0378 18.4958 33.4714C17.5388 33.0906 16.8015 32.3533 16.4158 31.3914C15.8445 29.9509 15.9763 26.533 15.9763 24.9412C15.9763 23.3494 15.8494 19.9265 16.4158 18.491C16.7966 17.5339 17.5339 16.7966 18.4958 16.4109C19.9363 15.8396 23.3542 15.9714 24.946 15.9714C26.5378 15.9714 29.9607 15.8445 31.3962 16.4109C32.3533 16.7917 33.0906 17.5291 33.4763 18.491C34.0476 19.9314 33.9158 23.3494 33.9158 24.9412C33.9158 26.533 34.0476 29.9558 33.4763 31.3914Z" fill="white"/>
</svg>
