<svg width="50" height="50" viewBox="0 0 50 50" fill="none" xmlns="http://www.w3.org/2000/svg">
<rect width="50" height="50" rx="10" fill="#0B65C3"/>
<path d="M34.3125 14H15.5576C14.6982 14 14 14.708 14 15.5771V34.2979C14 35.167 14.6982 35.875 15.5576 35.875H34.3125C35.1719 35.875 35.875 35.167 35.875 34.2979V15.5771C35.875 14.708 35.1719 14 34.3125 14ZM20.6113 32.75H17.3691V22.3105H20.6162V32.75H20.6113ZM18.9902 20.8848C17.9502 20.8848 17.1104 20.04 17.1104 19.0049C17.1104 17.9697 17.9502 17.125 18.9902 17.125C20.0254 17.125 20.8701 17.9697 20.8701 19.0049C20.8701 20.0449 20.0303 20.8848 18.9902 20.8848ZM32.7646 32.75H29.5225V27.6719C29.5225 26.4609 29.498 24.9033 27.8379 24.9033C26.1484 24.9033 25.8896 26.2217 25.8896 27.584V32.75H22.6475V22.3105H25.7578V23.7363H25.8018C26.2363 22.916 27.2959 22.0518 28.873 22.0518C32.1543 22.0518 32.7646 24.2148 32.7646 27.0273V32.75Z" fill="white"/>
</svg>
