<svg width="191" height="40" viewBox="0 0 191 40" fill="none" xmlns="http://www.w3.org/2000/svg">
<path d="M57.0881 12.4545H60.1278V22.5966C60.1278 23.5341 59.9171 24.3485 59.4957 25.0398C59.0791 25.7311 58.4991 26.2637 57.7557 26.6378C57.0123 27.0118 56.1482 27.1989 55.1634 27.1989C54.2874 27.1989 53.492 27.045 52.777 26.7372C52.0668 26.4247 51.5033 25.9512 51.0866 25.3168C50.67 24.6776 50.464 23.875 50.4688 22.9091H53.5298C53.5393 23.2926 53.6174 23.6217 53.7642 23.8963C53.9157 24.1662 54.1217 24.3745 54.3821 24.5213C54.6473 24.6634 54.9598 24.7344 55.3196 24.7344C55.6984 24.7344 56.018 24.6539 56.2784 24.4929C56.5436 24.3272 56.7448 24.0857 56.8821 23.7685C57.0194 23.4512 57.0881 23.0606 57.0881 22.5966V12.4545ZM65.7244 27.206C65.0284 27.206 64.4081 27.0852 63.8636 26.8438C63.3191 26.5975 62.8883 26.2353 62.571 25.7571C62.2585 25.2741 62.1023 24.6728 62.1023 23.9531C62.1023 23.3471 62.2135 22.8381 62.4361 22.4261C62.6586 22.0142 62.9616 21.6828 63.3452 21.4318C63.7287 21.1809 64.1643 20.9915 64.652 20.8636C65.1444 20.7358 65.6605 20.6458 66.2003 20.5938C66.8348 20.5275 67.3461 20.4659 67.7344 20.4091C68.1226 20.3475 68.4044 20.2576 68.5795 20.1392C68.7547 20.0208 68.8423 19.8456 68.8423 19.6136V19.571C68.8423 19.1212 68.7003 18.7732 68.4162 18.527C68.1368 18.2808 67.7391 18.1577 67.223 18.1577C66.6785 18.1577 66.2453 18.2784 65.9233 18.5199C65.6013 18.7566 65.3883 19.0549 65.2841 19.4148L62.4858 19.1875C62.6278 18.5246 62.9072 17.9517 63.3239 17.4688C63.7405 16.9811 64.2779 16.607 64.9361 16.3466C65.599 16.0814 66.366 15.9489 67.2372 15.9489C67.8433 15.9489 68.4233 16.0199 68.9773 16.1619C69.536 16.304 70.0308 16.5241 70.4616 16.8224C70.8973 17.1207 71.2405 17.5043 71.4915 17.973C71.7424 18.437 71.8679 18.9934 71.8679 19.642V27H68.9986V25.4872H68.9134C68.7382 25.8281 68.5038 26.1288 68.2102 26.3892C67.9167 26.6449 67.5639 26.8461 67.152 26.9929C66.7401 27.1349 66.2642 27.206 65.7244 27.206ZM66.5909 25.1179C67.036 25.1179 67.429 25.0303 67.7699 24.8551C68.1108 24.6752 68.3783 24.4337 68.5724 24.1307C68.7666 23.8277 68.8636 23.4844 68.8636 23.1009V21.9432C68.7689 22.0047 68.6387 22.0616 68.473 22.1136C68.312 22.161 68.1297 22.206 67.9261 22.2486C67.7225 22.2865 67.5189 22.322 67.3153 22.3551C67.1117 22.3835 66.9271 22.4096 66.7614 22.4332C66.4063 22.4853 66.0961 22.5682 65.831 22.6818C65.5658 22.7955 65.3598 22.9493 65.2131 23.1435C65.0663 23.3329 64.9929 23.5696 64.9929 23.8537C64.9929 24.2656 65.142 24.5805 65.4403 24.7983C65.7434 25.0114 66.1269 25.1179 66.5909 25.1179ZM75.6925 31.0909C75.3089 31.0909 74.9491 31.0601 74.6129 30.9986C74.2815 30.9418 74.0069 30.8684 73.7891 30.7784L74.4709 28.5199C74.826 28.6288 75.1456 28.688 75.4297 28.6974C75.7185 28.7069 75.9671 28.6406 76.1754 28.4986C76.3885 28.3565 76.5613 28.1151 76.6939 27.7741L76.8714 27.3125L72.9581 16.0909H76.1399L78.3984 24.1023H78.5121L80.7919 16.0909H83.995L79.755 28.179C79.5514 28.7661 79.2744 29.2775 78.924 29.7131C78.5784 30.1534 78.1404 30.492 77.6101 30.7287C77.0798 30.9702 76.4406 31.0909 75.6925 31.0909ZM92.3402 19.8267V22.2273H85.7067V19.8267H92.3402ZM94.9183 27V16.0909H97.8516V17.9943H97.9652C98.1641 17.3172 98.4979 16.8059 98.9666 16.4602C99.4354 16.1098 99.9751 15.9347 100.586 15.9347C100.737 15.9347 100.901 15.9441 101.076 15.9631C101.251 15.982 101.405 16.008 101.538 16.0412V18.7259C101.396 18.6832 101.199 18.6454 100.948 18.6122C100.697 18.5791 100.468 18.5625 100.259 18.5625C99.8142 18.5625 99.4164 18.6596 99.0661 18.8537C98.7204 19.0431 98.4458 19.3082 98.2422 19.6491C98.0433 19.9901 97.9439 20.383 97.9439 20.8281V27H94.9183Z" fill="black"/>
<path d="M107.788 27V12.4545H113.526C114.629 12.4545 115.569 12.6652 116.346 13.0866C117.122 13.5033 117.714 14.0833 118.121 14.8267C118.533 15.5653 118.739 16.4176 118.739 17.3835C118.739 18.3494 118.531 19.2017 118.114 19.9403C117.698 20.679 117.094 21.2543 116.303 21.6662C115.517 22.0781 114.566 22.2841 113.448 22.2841H109.79V19.8196H112.951C113.543 19.8196 114.031 19.7178 114.414 19.5142C114.802 19.3059 115.091 19.0194 115.281 18.6548C115.475 18.2855 115.572 17.8617 115.572 17.3835C115.572 16.9006 115.475 16.4792 115.281 16.1193C115.091 15.7547 114.802 15.473 114.414 15.2741C114.026 15.0705 113.533 14.9688 112.937 14.9688H110.863V27H107.788ZM125.433 27.2131C124.33 27.2131 123.376 26.9787 122.571 26.5099C121.771 26.0365 121.153 25.3783 120.717 24.5355C120.282 23.688 120.064 22.7055 120.064 21.5881C120.064 20.4612 120.282 19.4763 120.717 18.6335C121.153 17.786 121.771 17.1278 122.571 16.6591C123.376 16.1856 124.33 15.9489 125.433 15.9489C126.536 15.9489 127.488 16.1856 128.288 16.6591C129.093 17.1278 129.714 17.786 130.149 18.6335C130.585 19.4763 130.803 20.4612 130.803 21.5881C130.803 22.7055 130.585 23.688 130.149 24.5355C129.714 25.3783 129.093 26.0365 128.288 26.5099C127.488 26.9787 126.536 27.2131 125.433 27.2131ZM125.447 24.8693C125.949 24.8693 126.368 24.7273 126.705 24.4432C127.041 24.1544 127.294 23.7614 127.464 23.2642C127.64 22.767 127.727 22.2012 127.727 21.5668C127.727 20.9323 127.64 20.3665 127.464 19.8693C127.294 19.3722 127.041 18.9792 126.705 18.6903C126.368 18.4015 125.949 18.2571 125.447 18.2571C124.941 18.2571 124.515 18.4015 124.169 18.6903C123.828 18.9792 123.57 19.3722 123.395 19.8693C123.224 20.3665 123.139 20.9323 123.139 21.5668C123.139 22.2012 123.224 22.767 123.395 23.2642C123.57 23.7614 123.828 24.1544 124.169 24.4432C124.515 24.7273 124.941 24.8693 125.447 24.8693ZM132.77 27V16.0909H135.703V17.9943H135.817C136.016 17.3172 136.349 16.8059 136.818 16.4602C137.287 16.1098 137.827 15.9347 138.438 15.9347C138.589 15.9347 138.752 15.9441 138.928 15.9631C139.103 15.982 139.257 16.008 139.389 16.0412V18.7259C139.247 18.6832 139.051 18.6454 138.8 18.6122C138.549 18.5791 138.319 18.5625 138.111 18.5625C137.666 18.5625 137.268 18.6596 136.918 18.8537C136.572 19.0431 136.297 19.3082 136.094 19.6491C135.895 19.9901 135.795 20.383 135.795 20.8281V27H132.77ZM147.303 16.0909V18.3636H140.733V16.0909H147.303ZM142.225 13.4773H145.25V23.6477C145.25 23.9271 145.293 24.1449 145.378 24.3011C145.463 24.4527 145.582 24.5592 145.733 24.6207C145.89 24.6823 146.069 24.7131 146.273 24.7131C146.415 24.7131 146.557 24.7012 146.699 24.6776C146.841 24.6491 146.95 24.6278 147.026 24.6136L147.502 26.8651C147.35 26.9124 147.137 26.9669 146.863 27.0284C146.588 27.0947 146.254 27.1349 145.861 27.1491C145.132 27.1776 144.493 27.0805 143.944 26.858C143.399 26.6354 142.975 26.2898 142.672 25.821C142.369 25.3523 142.22 24.7604 142.225 24.0455V13.4773ZM155.14 16.0909V18.3636H148.407V16.0909H155.14ZM149.949 27V15.3026C149.949 14.5118 150.102 13.8561 150.41 13.3352C150.723 12.8144 151.149 12.4238 151.689 12.1634C152.228 11.9029 152.842 11.7727 153.528 11.7727C153.992 11.7727 154.416 11.8082 154.799 11.8793C155.188 11.9503 155.476 12.0142 155.666 12.071L155.126 14.3438C155.008 14.3059 154.861 14.2704 154.686 14.2372C154.515 14.2041 154.34 14.1875 154.16 14.1875C153.715 14.1875 153.405 14.2917 153.23 14.5C153.055 14.7036 152.967 14.9901 152.967 15.3594V27H149.949ZM161.527 27.2131C160.424 27.2131 159.47 26.9787 158.665 26.5099C157.865 26.0365 157.247 25.3783 156.811 24.5355C156.375 23.688 156.158 22.7055 156.158 21.5881C156.158 20.4612 156.375 19.4763 156.811 18.6335C157.247 17.786 157.865 17.1278 158.665 16.6591C159.47 16.1856 160.424 15.9489 161.527 15.9489C162.63 15.9489 163.582 16.1856 164.382 16.6591C165.187 17.1278 165.807 17.786 166.243 18.6335C166.679 19.4763 166.896 20.4612 166.896 21.5881C166.896 22.7055 166.679 23.688 166.243 24.5355C165.807 25.3783 165.187 26.0365 164.382 26.5099C163.582 26.9787 162.63 27.2131 161.527 27.2131ZM161.541 24.8693C162.043 24.8693 162.462 24.7273 162.798 24.4432C163.134 24.1544 163.388 23.7614 163.558 23.2642C163.733 22.767 163.821 22.2012 163.821 21.5668C163.821 20.9323 163.733 20.3665 163.558 19.8693C163.388 19.3722 163.134 18.9792 162.798 18.6903C162.462 18.4015 162.043 18.2571 161.541 18.2571C161.035 18.2571 160.608 18.4015 160.263 18.6903C159.922 18.9792 159.664 19.3722 159.489 19.8693C159.318 20.3665 159.233 20.9323 159.233 21.5668C159.233 22.2012 159.318 22.767 159.489 23.2642C159.664 23.7614 159.922 24.1544 160.263 24.4432C160.608 24.7273 161.035 24.8693 161.541 24.8693ZM171.889 12.4545V27H168.864V12.4545H171.889ZM174.313 27V16.0909H177.338V27H174.313ZM175.833 14.6847C175.383 14.6847 174.997 14.5355 174.675 14.2372C174.358 13.9342 174.199 13.572 174.199 13.1506C174.199 12.7339 174.358 12.3764 174.675 12.0781C174.997 11.7751 175.383 11.6236 175.833 11.6236C176.283 11.6236 176.666 11.7751 176.983 12.0781C177.305 12.3764 177.466 12.7339 177.466 13.1506C177.466 13.572 177.305 13.9342 176.983 14.2372C176.666 14.5355 176.283 14.6847 175.833 14.6847ZM184.691 27.2131C183.588 27.2131 182.634 26.9787 181.829 26.5099C181.029 26.0365 180.411 25.3783 179.975 24.5355C179.54 23.688 179.322 22.7055 179.322 21.5881C179.322 20.4612 179.54 19.4763 179.975 18.6335C180.411 17.786 181.029 17.1278 181.829 16.6591C182.634 16.1856 183.588 15.9489 184.691 15.9489C185.794 15.9489 186.746 16.1856 187.546 16.6591C188.351 17.1278 188.971 17.786 189.407 18.6335C189.843 19.4763 190.06 20.4612 190.06 21.5881C190.06 22.7055 189.843 23.688 189.407 24.5355C188.971 25.3783 188.351 26.0365 187.546 26.5099C186.746 26.9787 185.794 27.2131 184.691 27.2131ZM184.705 24.8693C185.207 24.8693 185.626 24.7273 185.962 24.4432C186.299 24.1544 186.552 23.7614 186.722 23.2642C186.897 22.767 186.985 22.2012 186.985 21.5668C186.985 20.9323 186.897 20.3665 186.722 19.8693C186.552 19.3722 186.299 18.9792 185.962 18.6903C185.626 18.4015 185.207 18.2571 184.705 18.2571C184.199 18.2571 183.772 18.4015 183.427 18.6903C183.086 18.9792 182.828 19.3722 182.653 19.8693C182.482 20.3665 182.397 20.9323 182.397 21.5668C182.397 22.2012 182.482 22.767 182.653 23.2642C182.828 23.7614 183.086 24.1544 183.427 24.4432C183.772 24.7273 184.199 24.8693 184.705 24.8693Z" fill="#008CFF"/>
<rect width="40" height="40" rx="10" fill="#008CFF"/>
<path d="M17.8955 29.979L15.5127 29.2876C15.2627 29.2173 15.1221 28.9556 15.1924 28.7056L20.5244 10.3384C20.5947 10.0884 20.8564 9.94777 21.1064 10.0181L23.4893 10.7095C23.7393 10.7798 23.8799 11.0415 23.8096 11.2915L18.4775 29.6587C18.4033 29.9087 18.1455 30.0532 17.8955 29.979ZM13.4424 25.5962L15.1416 23.7837C15.3213 23.5923 15.3096 23.2876 15.1104 23.1118L11.5713 19.9985L15.1104 16.8853C15.3096 16.7095 15.3252 16.4048 15.1416 16.2134L13.4424 14.4009C13.2666 14.2134 12.9697 14.2017 12.7783 14.3814L7.14941 19.6548C6.9502 19.8384 6.9502 20.1548 7.14941 20.3384L12.7783 25.6157C12.9697 25.7954 13.2666 25.7876 13.4424 25.5962ZM26.2236 25.6196L31.8525 20.3423C32.0518 20.1587 32.0518 19.8423 31.8525 19.6587L26.2236 14.3775C26.0361 14.2017 25.7393 14.2095 25.5596 14.397L23.8604 16.2095C23.6807 16.4009 23.6924 16.7056 23.8916 16.8814L27.4307 19.9985L23.8916 23.1118C23.6924 23.2876 23.6768 23.5923 23.8604 23.7837L25.5596 25.5962C25.7354 25.7876 26.0322 25.7954 26.2236 25.6196Z" fill="white"/>
</svg>
